<svg width="253" height="253" viewBox="0 0 253 253" fill="none" xmlns="http://www.w3.org/2000/svg">
<mask id="mask0_1_6" style="mask-type:alpha" maskUnits="userSpaceOnUse" x="0" y="0" width="253" height="253">
<rect width="252.155" height="252.155" fill="#D9D9D9"/>
</mask>
<g mask="url(#mask0_1_6)">
<path d="M209.604 220.635C187.715 220.635 166.089 215.864 144.726 206.32C123.363 196.777 103.926 183.25 86.4155 165.739C68.9048 148.228 55.3777 128.792 45.8344 107.428C36.291 86.0653 31.5193 64.4396 31.5193 42.5511C31.5193 39.3992 32.57 36.7726 34.6713 34.6713C36.7726 32.57 39.3992 31.5193 42.5511 31.5193H85.1022C87.5537 31.5193 89.7426 32.3511 91.6688 34.0146C93.595 35.6782 94.7332 37.6481 95.0834 39.9245L101.913 76.6971C102.263 79.4988 102.175 81.8628 101.65 83.7889C101.125 85.7151 100.161 87.3786 98.7606 88.7795L73.2825 114.52C76.7846 120.999 80.9434 127.259 85.7589 133.301C90.5743 139.342 95.8714 145.164 101.65 150.768C107.078 156.196 112.769 161.23 118.723 165.871C124.677 170.511 130.98 174.757 137.634 178.61L162.325 153.919C163.901 152.344 165.958 151.162 168.497 150.374C171.036 149.586 173.532 149.367 175.983 149.717L212.23 157.071C214.682 157.772 216.696 159.041 218.271 160.88C219.847 162.719 220.635 164.776 220.635 167.053V209.604C220.635 212.756 219.585 215.382 217.484 217.484C215.382 219.585 212.756 220.635 209.604 220.635ZM63.3014 94.558L80.637 77.2224L76.1718 52.5322H52.7949C53.6704 59.7117 54.8962 66.8035 56.4722 73.8078C58.0481 80.8121 60.3245 87.7289 63.3014 94.558ZM157.334 188.591C164.163 191.568 171.124 193.932 178.216 195.683C185.308 197.434 192.443 198.572 199.623 199.097V175.983L174.932 170.992L157.334 188.591Z" fill="#555555"/>
</g>
</svg>
