<svg width="282" height="282" viewBox="0 0 282 282" fill="none" xmlns="http://www.w3.org/2000/svg">
<mask id="mask0_1_12" style="mask-type:alpha" maskUnits="userSpaceOnUse" x="0" y="0" width="282" height="282">
<rect width="282" height="282" fill="#D9D9D9"/>
</mask>
<g mask="url(#mask0_1_12)">
<path d="M141 258.5L109.569 211.5H47C40.5375 211.5 35.0052 209.199 30.4031 204.597C25.801 199.995 23.5 194.463 23.5 188V47C23.5 40.5375 25.801 35.0052 30.4031 30.4031C35.0052 25.801 40.5375 23.5 47 23.5H235C241.463 23.5 246.995 25.801 251.597 30.4031C256.199 35.0052 258.5 40.5375 258.5 47V188C258.5 194.463 256.199 199.995 251.597 204.597C246.995 209.199 241.463 211.5 235 211.5H172.431L141 258.5ZM141 216.2L159.8 188H235V47H47V188H122.2L141 216.2Z" fill="#555555"/>
</g>
<path d="M73.4766 96.8203H106.383V104.941H94.8867V135H84.9727V104.941H73.4766V96.8203ZM104.168 135L116.877 96.8203H130.535L143.191 135H132.381L130.087 127.512H117.299L115.031 135H104.168ZM127.767 119.918L123.838 107.104H123.521L119.619 119.918H127.767ZM146.988 96.8203H157.008V126.879H172.564V135H146.988V96.8203ZM176.889 96.8203H186.908V112.43H187.436L199.248 96.8203H211.008L197.93 113.854L211.271 135H199.248L190.441 120.498L186.908 125.033V135H176.889V96.8203Z" fill="#555555"/>
</svg>
