<svg width="280" height="280" viewBox="0 0 280 280" fill="none" xmlns="http://www.w3.org/2000/svg">
<mask id="mask0_1_19" style="mask-type:alpha" maskUnits="userSpaceOnUse" x="0" y="0" width="280" height="280">
<rect width="280" height="280" fill="#D9D9D9"/>
</mask>
<g mask="url(#mask0_1_19)">
<path d="M127.75 155.75L185.5 98L168.875 81.375L127.75 122.5L111.417 106.167L94.7916 122.792L127.75 155.75ZM140 225.75C163.722 203.972 181.319 184.188 192.792 166.396C204.264 148.604 210 132.806 210 119C210 97.8056 203.243 80.4514 189.729 66.9375C176.215 53.4237 159.639 46.6667 140 46.6667C120.361 46.6667 103.785 53.4237 90.2707 66.9375C76.7568 80.4514 69.9999 97.8056 69.9999 119C69.9999 132.806 75.736 148.604 87.2082 166.396C98.6805 184.188 116.278 203.972 140 225.75ZM140 256.667C108.694 230.028 85.3124 205.285 69.8541 182.438C54.3957 159.59 46.6666 138.444 46.6666 119C46.6666 89.8334 56.0485 66.5973 74.8124 49.2917C93.5763 31.9862 115.305 23.3334 140 23.3334C164.694 23.3334 186.424 31.9862 205.187 49.2917C223.951 66.5973 233.333 89.8334 233.333 119C233.333 138.444 225.604 159.59 210.146 182.438C194.687 205.285 171.305 230.028 140 256.667Z" fill="#555555"/>
</g>
</svg>
