<svg width="1200" height="840" viewBox="0 0 1200 840" fill="none" xmlns="http://www.w3.org/2000/svg">
  <rect width="1200" height="840" rx="32" fill="#F6F1E7"/>
  <rect x="28" y="28" width="1144" height="784" rx="24" stroke="#B99B5D" stroke-width="4"/>
  <rect x="54" y="54" width="1092" height="732" rx="18" stroke="#D7C29A" stroke-width="2"/>
  <circle cx="600" cy="420" r="180" fill="#EFE4CD" fill-opacity="0.72"/>
  <circle cx="600" cy="420" r="138" stroke="#D1B98A" stroke-width="3" stroke-dasharray="10 10"/>
  <circle cx="600" cy="420" r="72" fill="#E3D1AA"/>
  <path d="M600 296L627.5 377.5H713L644 427.5L671.5 509L600 459L528.5 509L556 427.5L487 377.5H572.5L600 296Z" fill="#B3873E"/>
  <rect x="154" y="174" width="420" height="20" rx="10" fill="#D0BA8D"/>
  <rect x="154" y="224" width="312" height="12" rx="6" fill="#DDCDAA"/>
  <rect x="154" y="256" width="360" height="12" rx="6" fill="#DDCDAA"/>
  <rect x="154" y="324" width="892" height="14" rx="7" fill="#D7C29A"/>
  <rect x="154" y="364" width="892" height="14" rx="7" fill="#E1D4B7"/>
  <rect x="154" y="404" width="290" height="14" rx="7" fill="#E1D4B7"/>
  <rect x="756" y="224" width="290" height="290" rx="24" fill="#F8F3EA" stroke="#D7C29A" stroke-width="2"/>
  <rect x="790" y="270" width="222" height="12" rx="6" fill="#D7C29A"/>
  <rect x="790" y="308" width="188" height="12" rx="6" fill="#E1D4B7"/>
  <rect x="790" y="346" width="222" height="12" rx="6" fill="#E1D4B7"/>
  <rect x="790" y="384" width="154" height="12" rx="6" fill="#E1D4B7"/>
  <path d="M872 534H1020V650L966 610L912 650L872 534Z" fill="#B3873E"/>
  <circle cx="946" cy="526" r="58" fill="#C39A58"/>
  <circle cx="946" cy="526" r="34" fill="#F5ECD7"/>
  <rect x="154" y="566" width="430" height="14" rx="7" fill="#D7C29A"/>
  <rect x="154" y="606" width="468" height="14" rx="7" fill="#E1D4B7"/>
  <rect x="154" y="646" width="364" height="14" rx="7" fill="#E1D4B7"/>
  <rect x="154" y="716" width="170" height="12" rx="6" fill="#C39A58"/>
  <rect x="858" y="716" width="188" height="12" rx="6" fill="#C39A58"/>
</svg>
